HIERARCHY
ROOT Hips
{
	OFFSET -3.958830 18.904000 13.208200
	CHANNELS 6 Xposition Yposition Zposition Zrotation Yrotation Xrotation 
	JOINT LHipJoint
	{
		OFFSET 0.000000 0.000000 0.000000
		CHANNELS 3 Zrotation Yrotation Xrotation
		JOINT LeftUpLeg
		{
			OFFSET 1.800000 -1.400000 0.085000
			CHANNELS 3 Zrotation Yrotation Xrotation
			JOINT LeftLeg
			{
				OFFSET 2.215000 -6.000000 0.000000
				CHANNELS 3 Zrotation Yrotation Xrotation
				JOINT LeftFoot
				{
					OFFSET 2.500000 -6.900000 0.000000
					CHANNELS 3 Zrotation Yrotation Xrotation
					JOINT LeftToeBase
					{
						OFFSET 0.200000 -0.500000 1.950000
						CHANNELS 3 Zrotation Yrotation Xrotation
						End Site
						{
							OFFSET 0.000000 0.000000 0.000000
						}
					}
				}
			}
		}
	}
	JOINT RHipJoint
	{
		OFFSET 0.000000 0.000000 0.000000
		CHANNELS 3 Zrotation Yrotation Xrotation
		JOINT RightUpLeg
		{
			OFFSET -1.800000 -1.400000 0.085000
			CHANNELS 3 Zrotation Yrotation Xrotation
			JOINT RightLeg
			{
				OFFSET -2.215000 -6.000000 0.000000
				CHANNELS 3 Zrotation Yrotation Xrotation
				JOINT RightFoot
				{
					OFFSET -2.500000 -6.900000 0.000000
					CHANNELS 3 Zrotation Yrotation Xrotation
					JOINT RightToeBase
					{
						OFFSET -0.200000 -0.500000 1.950000
						CHANNELS 3 Zrotation Yrotation Xrotation
						End Site
						{
							OFFSET 0.000000 0.000000 0.000000
						}
					}
				}
			}
		}
	}
	JOINT LowerBack
	{
		OFFSET 0.000000 0.000000 0.000000
		CHANNELS 3 Zrotation Yrotation Xrotation
		JOINT Spine
		{
			OFFSET -0.087000 1.940000 -0.288900
			CHANNELS 3 Zrotation Yrotation Xrotation
			JOINT Spine1
			{
				OFFSET 0.000000 1.950000 0.060000
				CHANNELS 3 Zrotation Yrotation Xrotation
				JOINT Neck
				{
					OFFSET 0.000000 0.000000 0.000000
					CHANNELS 3 Zrotation Yrotation Xrotation
					JOINT Neck1
					{
						OFFSET 0.000000 1.600000 0.340000
						CHANNELS 3 Zrotation Yrotation Xrotation
						JOINT Head
						{
							OFFSET 0.000000 1.667000 -0.240000
							CHANNELS 3 Zrotation Yrotation Xrotation
							End Site
							{
								OFFSET 0.000000 0.000000 0.000000
							}
						}
					}
				}
				JOINT LeftShoulder
				{
					OFFSET 0.000000 0.000000 0.000000
					CHANNELS 3 Zrotation Yrotation Xrotation
					JOINT LeftArm
					{
						OFFSET 2.700000 1.550000 -0.730000
						CHANNELS 3 Zrotation Yrotation Xrotation
						JOINT LeftForeArm
						{
							OFFSET 5.450000 0.000000 0.000000
							CHANNELS 3 Zrotation Yrotation Xrotation
							JOINT LeftHand
							{
								OFFSET 3.450000 0.000000 0.000000
								CHANNELS 3 Zrotation Yrotation Xrotation
								JOINT LeftHandIndex1
								{
									OFFSET 0.750000 0.000000 0.000000
									CHANNELS 3 Zrotation Yrotation Xrotation
									End Site
									{
										OFFSET 0.000000 0.000000 0.000000
									}
								}
							}
						}
					}
				}
				JOINT RightShoulder
				{
					OFFSET 0.000000 0.000000 0.000000
					CHANNELS 3 Zrotation Yrotation Xrotation
					JOINT RightArm
					{
						OFFSET -2.700000 1.550000 -0.730000
						CHANNELS 3 Zrotation Yrotation Xrotation
						JOINT RightForeArm
						{
							OFFSET -5.450000 0.000000 0.000000
							CHANNELS 3 Zrotation Yrotation Xrotation
							JOINT RightHand
							{
								OFFSET -3.450000 0.000000 0.000000
								CHANNELS 3 Zrotation Yrotation Xrotation
								JOINT RightHandIndex1
								{
									OFFSET -0.750000 0.000000 0.000000
									CHANNELS 3 Zrotation Yrotation Xrotation
									End Site
									{
										OFFSET 0.000000 0.000000 0.000000
									}
								}
							}
						}
					}
				}
			}
		}
	}
}
MOTION
Frames: 10
Frame Time: 0.016667
-1.598090 16.359310 -2.004390 -9.375337 -14.606561 -14.440286 -15.564160 13.471003 3.724493 -1.584823 -4.769383 -29.101361 13.242723 5.448633 65.473657 0.925908 10.402155 0.698023 0.760770 0.471700 0.842630 17.920026 -9.655204 3.727355 7.517362 9.032931 -15.915169 3.998206 -10.291215 55.483357 -1.642877 -8.031163 1.639339 0.144370 -0.544540 0.057740 -2.300216 -3.623477 -9.131581 6.237071 2.867249 29.405590 9.173406 4.067300 16.178762 2.211393 -6.250411 -25.206362 -16.357159 9.529083 57.408929 -1.354610 6.882640 -19.132100 -25.888038 -36.026346 11.574663 -62.234913 -12.989762 -13.726759 7.691607 -33.374755 -7.831322 -2.768377 3.049187 0.886800 -0.452830 0.477680 0.008820 24.910856 43.731521 19.488139 43.942341 17.612723 -17.754386 -15.642840 32.150935 -7.391040 1.976277 -1.540771 0.005310 0.033660 -0.299560 -0.404320 
-1.638930 16.353780 -2.007350 -9.748637 -15.463280 -14.171373 -15.581988 13.313186 3.752903 -0.970905 -4.966758 -29.669234 11.673791 6.527167 65.731056 0.929334 10.560822 0.663832 0.716000 0.419400 0.811320 17.925746 -9.625458 3.742156 7.996839 8.915392 -15.346130 5.751675 -11.286070 54.819522 -1.642598 -8.164247 1.626843 0.128810 -0.488620 0.068390 -2.284014 -3.469596 -9.153765 6.220723 3.335111 28.698984 10.222494 4.152138 17.920551 1.787268 -5.888523 -24.422769 -14.305315 8.755155 54.734454 -2.411260 7.720950 -19.381190 -26.007444 -35.400555 11.779260 -61.958949 -15.752265 -15.812240 15.696599 -41.786137 -13.141524 -2.806092 2.993823 0.847680 -0.391760 0.422790 0.002910 25.721592 42.620338 19.903682 41.121793 19.919205 -20.525849 -19.777366 37.430583 -10.284795 1.915461 -1.531413 -0.017640 0.035090 -0.268640 -0.409930 
-1.683570 16.357670 -1.997400 -10.072403 -15.769652 -13.663727 -15.589737 13.150861 3.771863 -0.857104 -5.129841 -29.984876 10.092138 7.406836 64.982943 0.903248 10.579594 0.692936 0.645890 0.328540 0.755750 17.934733 -9.640976 3.751990 8.444684 8.578369 -14.332634 8.224193 -12.399843 53.049249 -1.611066 -8.215841 1.631895 0.102070 -0.399580 0.084320 -2.294685 -3.237036 -9.154059 6.321691 3.785720 27.425200 11.385883 4.352454 18.906009 1.245512 -5.458797 -23.105649 -12.417633 7.614779 52.285198 -3.632180 7.755550 -18.104590 -27.028732 -34.598240 12.305165 -61.622744 -18.021065 -16.516786 24.757139 -49.349287 -19.828035 -2.899591 2.860128 0.794460 -0.314110 0.346670 0.004580 27.643664 41.349208 19.791179 38.579048 20.232486 -23.230399 -26.956766 45.442843 -15.513320 1.963705 -1.437169 -0.053580 0.044530 -0.222960 -0.403740 
-1.720670 16.367000 -1.988070 -9.547488 -15.218323 -13.837967 -15.590592 13.043437 3.746260 -2.183500 -5.376588 -29.265583 10.856929 6.707712 64.761039 0.918875 10.488041 0.744666 0.653040 0.360520 0.731610 17.940687 -9.757313 3.676419 7.271313 8.113056 -13.654411 10.513128 -13.492512 51.670873 -1.605730 -8.329917 1.598845 0.133740 -0.363320 0.096110 -2.323481 -2.935992 -9.041273 5.775086 4.376619 26.177281 12.389398 4.457123 20.877653 0.585740 -4.918276 -21.904535 -10.569054 6.243622 50.055778 -4.165900 7.190350 -18.049290 -25.763637 -34.478711 12.748901 -61.705148 -21.912004 -15.518645 37.399761 -54.113494 -28.490580 -2.980364 2.703654 0.718770 -0.268520 0.309640 0.023590 27.476916 40.957569 19.266825 36.302755 21.487960 -23.952812 -40.687652 50.904409 -24.081140 2.340960 -1.405358 -0.038220 0.038010 -0.228670 -0.376770 
-1.717510 16.389020 -1.983760 -9.449528 -15.349704 -14.573832 -15.502527 13.027671 3.699951 -3.137711 -5.288158 -28.142665 11.810874 5.929411 64.566128 0.910095 10.438364 0.801349 0.651630 0.373220 0.686670 18.006445 -9.948997 3.612186 6.393962 7.471814 -12.165911 11.740531 -13.828150 49.852920 -1.554002 -8.274384 1.636078 0.170460 -0.291220 0.086370 -2.553479 -2.640805 -8.930606 7.679327 4.316389 26.326548 11.031935 4.805634 23.096855 0.886692 -5.076557 -21.511386 -10.618465 5.637906 47.203141 -3.830730 6.126080 -17.714930 -25.419144 -35.239696 13.502813 -58.328756 -24.579926 -14.728759 55.625778 -59.050318 -42.432820 -3.145476 2.391287 0.661710 -0.218960 0.250190 0.058210 26.278227 41.756431 19.367104 32.590917 22.200751 -24.586705 -54.894704 54.558668 -33.892385 3.038733 -1.764846 -0.059180 0.073230 -0.222320 -0.350570 
-1.704920 16.424010 -1.987510 -9.151760 -15.456407 -15.596460 -15.377413 13.015928 3.647705 -4.351822 -5.186048 -26.660301 12.956718 4.888095 63.647639 0.860923 10.265318 0.888440 0.637680 0.366010 0.632710 18.105712 -10.150317 3.558086 5.221098 6.997202 -10.942935 12.658314 -14.247403 48.923391 -1.516914 -8.362192 1.612639 0.203140 -0.220860 0.082510 -2.888928 -2.318164 -8.779803 10.035642 3.775140 27.084049 8.057175 5.103612 25.013888 1.610674 -5.205551 -20.985338 -10.679162 4.936413 44.078482 -3.731720 4.953590 -17.005110 -24.884904 -35.582764 14.163002 -51.997419 -26.192402 -13.752889 77.948701 -60.515386 -60.131911 -3.561683 2.302673 0.600370 -0.165060 0.177680 0.077630 23.841263 42.305104 19.338796 29.134343 23.229734 -28.466016 -69.802943 60.540883 -47.363882 3.953741 -2.735613 -0.082920 0.091180 -0.199380 -0.329820 
-1.692410 16.464190 -1.987050 -8.344186 -14.629571 -17.015114 -15.355351 13.075833 3.621747 -5.855361 -5.235818 -24.680233 14.206193 3.775770 62.886011 0.820858 10.173216 0.962649 0.599270 0.333270 0.569980 18.119092 -10.251774 3.412936 3.346510 6.286529 -9.527015 13.742133 -14.768480 47.636791 -1.459058 -8.435624 1.600394 0.226160 -0.116680 0.085310 -2.946546 -2.316371 -8.578616 10.511132 3.594923 28.010854 6.495123 5.433761 26.457914 2.124513 -5.054671 -19.477162 -10.165399 3.952638 40.264905 -3.657340 3.923480 -16.527540 -21.635369 -34.941001 14.333725 -47.149565 -28.956435 -12.286737 96.370318 -58.457043 -75.000945 -3.866511 2.240206 0.534910 -0.084730 0.092220 0.087620 19.028335 42.531097 17.069258 26.190887 22.038298 -34.564587 -91.363332 69.075114 -65.960908 3.511493 -1.913180 -0.121100 0.132000 -0.153300 -0.310060 
-1.689530 16.508320 -1.988520 -7.144516 -14.758765 -18.544700 -15.301926 13.084921 3.540731 -6.826818 -4.909772 -22.859326 15.054218 3.233489 62.492011 0.795956 10.196937 1.000373 0.568470 0.315020 0.503530 18.174177 -10.419280 3.256586 1.765430 5.776909 -7.986147 13.402443 -14.652523 47.228514 -1.394286 -8.499416 1.590645 0.264030 -0.000900 0.085970 -3.105360 -2.091304 -8.288466 10.835819 3.409526 29.107225 4.452112 5.858491 27.851032 2.391317 -5.255005 -17.593916 -10.018635 3.272253 35.534138 -3.051610 2.974300 -16.284950 -16.633351 -33.519671 13.142179 -41.490215 -29.659849 -9.290692 111.298691 -52.569440 -87.212716 -3.947367 2.267834 0.464469 -0.001150 0.004320 0.105890 12.974604 41.835202 14.909227 22.462511 21.599272 -26.571876 -109.212181 61.071961 -82.967814 2.542662 -0.064103 -0.163030 0.184500 -0.110400 -0.283970 
-1.689210 16.545960 -1.991770 -6.372222 -14.513521 -19.695851 -15.221319 12.999083 3.439419 -6.811477 -4.749054 -21.611716 15.323497 3.046188 62.467085 0.783381 10.312380 1.020006 0.500460 0.257030 0.411950 18.270775 -10.588249 3.132889 0.586137 5.367509 -7.013131 13.123671 -14.688110 47.095747 -1.317982 -8.626130 1.575162 0.285280 0.147280 0.077530 -3.383250 -1.681889 -7.993604 11.716633 2.714418 29.990184 1.956095 5.808064 28.647242 2.628920 -5.297424 -15.801642 -9.324578 2.522776 30.937550 -2.929970 2.066420 -14.396710 -10.458955 -31.093589 11.682651 -35.907956 -29.133777 -5.600023 122.565483 -45.493641 -95.726731 -3.962567 2.540018 0.367100 0.112060 -0.114350 0.121790 5.897628 39.316903 13.373228 18.634538 21.702065 -17.462858 -119.897340 50.681551 -97.843530 2.232384 -0.731452 -0.220140 0.243580 -0.053790 -0.252380 
-1.685350 16.581500 -1.980680 -5.458188 -14.431318 -20.863555 -15.170010 12.969940 3.398973 -6.922311 -4.685668 -20.551102 15.538415 2.926471 62.833197 0.813227 10.467691 1.025677 0.447820 0.207950 0.319660 18.330611 -10.745937 2.971801 -0.330145 4.751435 -5.829566 11.647088 -14.041413 46.837303 -1.221949 -8.576711 1.613436 0.293020 0.269090 0.073320 -3.554201 -1.448258 -7.756975 12.265050 2.196880 31.400758 -0.106335 5.892673 28.386496 2.611499 -5.684941 -14.311953 -9.423756 2.313631 27.164268 -1.944950 1.282540 -12.845850 -5.928183 -27.587698 10.280252 -28.685975 -28.272203 -2.409719 130.737141 -39.589123 -99.224393 -3.954612 2.770798 0.296180 0.189940 -0.207750 0.152780 1.050483 35.514320 11.930782 13.065108 21.067994 -12.184123 -129.827668 44.538427 -108.370927 1.984115 -1.483483 -0.260930 0.280380 -0.015280 -0.216640 
